<svg width="69" height="49" viewBox="0 0 69 49" fill="none" xmlns="http://www.w3.org/2000/svg">
<path d="M8.625 6.125C7.43906 6.125 6.46875 7.04375 6.46875 8.16667V10.9867L29.7158 29.0555C32.5055 31.2247 36.508 31.2247 39.2977 29.0555L62.5312 10.9867V8.16667C62.5312 7.04375 61.5609 6.125 60.375 6.125H8.625ZM6.46875 18.9109V40.8333C6.46875 41.9563 7.43906 42.875 8.625 42.875H60.375C61.5609 42.875 62.5312 41.9563 62.5312 40.8333V18.9109L43.3945 33.7896C38.2195 37.8091 30.767 37.8091 25.6055 33.7896L6.46875 18.9109ZM0 8.16667C0 3.66224 3.86777 0 8.625 0H60.375C65.1322 0 69 3.66224 69 8.16667V40.8333C69 45.3378 65.1322 49 60.375 49H8.625C3.86777 49 0 45.3378 0 40.8333V8.16667Z" fill="#70C4DE"/>
</svg>
